Coordinates
version=1
nRows=13
nColumns=36
inDegrees=yes

Units are S.I. units (second, meters, Newtons, ...)
If the header above contains a line with 'inDegrees', this indicates whether rotational values are in degrees (yes) or radians (no).

endheader
time	pelvis_tilt	pelvis_list	pelvis_rotation	pelvis_tx	pelvis_ty	pelvis_tz	hip_flexion_r	hip_adduction_r	hip_rotation_r	knee_angle_r	knee_angle_r_beta	ankle_angle_r	subtalar_angle_r	mtp_angle_r	hip_flexion_l	hip_adduction_l	hip_rotation_l	knee_angle_l	knee_angle_l_beta	ankle_angle_l	subtalar_angle_l	mtp_angle_l	lumbar_extension	lumbar_bending	lumbar_rotation	arm_flex_r	arm_add_r	arm_rot_r	elbow_flex_r	pro_sup_r	arm_flex_l	arm_add_l	arm_rot_l	elbow_flex_l	pro_sup_l
      2.21666670	      0.95188365	      2.37697765	     14.41846358	     -0.11738157	      1.04543915	      0.11284165	      1.73407256	     -0.90299944	    -10.37124010	      2.41631240	      0.04217261	     10.88657163	     -2.54336915	     -7.49999987	      4.71113006	      2.62168258	      3.59044119	      2.72154943	      0.04750000	      7.73643283	      2.86247922	     -7.49999987	     -3.02533676	     -1.52820750	     17.84821162	      5.30664758	     -9.24659203	     36.01968933	     48.00818164	     79.66110017	      0.99643312	     -8.28662184	     16.94567985	     45.38117573	     87.39865175
      2.23333330	      0.89223593	      2.35173595	     14.15162380	     -0.11906346	      1.03942456	      0.11367705	      2.05823658	     -0.89658305	    -10.19988347	      2.64686180	      0.04619645	     10.92109136	     -2.84108149	     -7.49999987	      4.90309610	      2.61011858	      3.37909073	      2.81498938	      0.04913083	      7.96809559	      2.89741640	     -7.49999987	     -3.13121185	     -1.55103049	     17.88265555	      5.25738628	     -9.20231853	     35.99572172	     46.73345123	     79.65184617	      1.41014495	     -7.99959645	     16.95497705	     44.28368160	     87.47825403
      2.25000000	      0.83711696	      2.30865448	     14.00338429	     -0.12032117	      1.04040474	      0.11351478	      2.50673764	     -0.88453545	    -10.12502033	      2.84805320	      0.04970791	     10.99802875	     -2.89614459	     -7.49999987	      5.08207261	      2.61375818	      3.41166936	      2.92159289	      0.05099142	      8.14527716	      2.87458040	     -7.49999987	     -3.20148546	     -1.50092889	     17.88516873	      5.43370575	     -9.26090016	     37.27610381	     45.12253335	     74.60951864	      2.19116185	     -7.97739899	     19.13068846	     42.89980677	     81.65006178
      2.26666670	      0.65963291	      2.22950817	     13.73164210	     -0.12581640	      1.03781287	      0.11305076	      3.21611156	     -0.89839053	     -9.86867144	      3.14888900	      0.05495848	     11.11020080	     -3.11207873	     -7.49999987	      5.57891910	      2.64431482	      3.29083408	      3.09937450	      0.05409429	      8.33803106	      2.71138950	     -7.49999987	     -3.27027290	     -1.45431964	     18.15503020	      5.18477673	     -9.06702276	     35.50407634	     43.60487190	     80.10696547	      2.86837415	     -7.24086363	     18.02153369	     41.34088153	     88.73862651
      2.28333330	      0.67684895	      2.20676112	     13.56615065	     -0.12277004	      1.03901055	      0.11119215	      3.46296452	     -0.93775406	     -9.71777078	      3.20849328	      0.05599877	     11.11158487	     -3.04780142	     -7.49999987	      5.70391503	      2.67913784	      3.29968636	      3.11021208	      0.05428344	      8.36926046	      2.68740838	     -7.49999987	     -3.63414029	     -1.46604027	     17.92067919	      4.89642757	     -9.29100482	     35.50149472	     43.35222720	     80.10381190	      2.87961032	     -7.05010255	     18.06014588	     41.25464725	     88.74419242
      2.30000000	      0.49020261	      2.17356343	     13.13902231	     -0.12312332	      1.03606488	      0.11066611	      4.31932935	     -1.09775494	     -9.42839231	      4.21456606	      0.07355805	     11.27159305	     -3.17798943	     -7.49999987	      6.16505033	      2.72680505	      3.11932085	      3.58308043	      0.06253655	      8.36875421	      1.85394871	     -7.49999987	     -3.40728591	     -1.29151323	     18.20931502	      5.17987469	     -9.07044128	     35.78302169	     40.71394030	     77.38279377	      3.93079102	     -6.47108044	     19.92659094	     38.38593173	     85.42411295
      2.31666670	      0.17570254	      2.17262552	     12.81662930	     -0.12445229	      1.04004346	      0.11238055	      5.13283902	     -1.24486358	     -9.09063933	      4.87610874	      0.08510415	     11.43927235	     -3.12123541	     -7.49999987	      6.67627009	      2.77762956	      2.89257007	      3.88208667	      0.06775519	      8.13224845	      1.15289082	     -7.49999987	     -3.18494811	     -1.30236133	     18.25061245	      4.92018447	     -8.79874719	     34.62330214	     39.33196890	     78.10287074	      4.22177142	     -5.89498762	     19.55272845	     36.84642367	     86.19702519
      2.33333330	      0.17727669	      2.21604600	     12.55151503	     -0.12187102	      1.03404117	      0.11248895	      5.47569830	     -1.34934333	     -8.67370797	      5.31895219	      0.09283323	     11.87122601	     -3.03691691	     -7.49999987	      6.81865732	      2.79501294	      2.68227403	      4.05103086	      0.07070383	      8.29658674	      0.78709268	     -7.49999987	     -3.36634448	     -1.32536777	     18.15179721	      4.77846571	     -8.86517561	     34.41066125	     38.80134113	     78.22813185	      4.25237560	     -5.68638077	     19.57931320	     36.45952982	     86.34137488
      2.35000000	     -0.32184190	      2.16172380	     12.50601583	     -0.12024398	      1.03280054	      0.11194630	      6.23991583	     -1.50208371	     -8.57603679	      5.83882139	      0.10190666	     12.21012356	     -3.21072180	     -7.49999987	      7.49621755	      2.82599043	      2.55098510	      4.41258508	      0.07701414	      8.67295044	      0.58815308	     -7.49999987	     -2.75760931	     -1.40311580	     17.87380445	      4.13043717	     -8.99713060	     34.19203256	     39.11301417	     77.60737117	      3.66692616	     -5.72264620	     19.46023023	     36.88132459	     85.45753401
      2.36666670	     -0.00994177	      2.21814779	     12.55132552	     -0.11755802	      1.03557298	      0.11308548	      5.79780695	     -1.44492629	     -8.42508507	      5.93321455	      0.10355413	     12.16369807	     -3.21661113	     -7.49999987	      7.06759115	      2.75757132	      2.56538869	      4.63244810	      0.08085147	      8.45877154	      0.03261875	     -7.49999987	     -3.00492121	     -1.37484709	     18.34015905	      3.80657254	     -8.44276584	     31.77635767	     36.99069960	     80.16329289	      4.93154058	     -5.27471054	     21.53870064	     33.86686015	     87.32345855
      2.38333330	      0.01287979	      2.31399761	     12.66489409	     -0.11488282	      1.03647306	      0.11229213	      5.53468138	     -1.51194187	     -8.40420943	      6.02864524	      0.10521971	     12.30340638	     -3.29474186	     -7.49999987	      6.81293111	      2.81851111	      2.63758937	      4.70638279	      0.08214188	      8.61488334	     -0.00397473	     -7.49999987	     -2.90160433	     -1.55583478	     17.88710244	      3.49340455	     -8.21170953	     31.10968787	     36.46897970	     79.32634022	      4.63578969	     -5.10134086	     21.01588666	     33.44584378	     86.19088615
      2.40000000	     -0.17637206	      2.27290046	     12.82860369	     -0.11365543	      1.03478873	      0.11217629	      5.48662341	     -1.49414864	     -8.47899206	      6.02673487	      0.10518637	     12.45358506	     -3.36815862	     -7.49999987	      6.92414304	      2.80772444	      2.65799724	      4.91547857	      0.08579129	      8.81279081	     -0.03554177	     -7.49999987	     -2.43131319	     -1.60028133	     17.51151638	      3.17723149	     -7.94699377	     30.47715290	     35.62329222	     78.66258445	      4.70493832	     -4.93003043	     21.59393857	     32.09834975	     84.71838918
      2.41666670	     -0.10376658	      2.30931314	     12.97864040	     -0.11169879	      1.03652370	      0.11129723	      5.04649000	     -1.49743976	     -8.48136711	      5.82451780	      0.10165701	     12.50239630	     -3.61900276	     -7.49999987	      6.59026926	      2.84422941	      2.75281815	      4.92070456	      0.08588250	      8.89018215	      0.08477790	     -7.49999987	     -2.33732540	     -1.68795994	     17.58642945	      2.24916555	     -7.68660048	     27.24187627	     35.74737074	     84.56729990	      4.95941817	     -4.81500690	     22.55451112	     31.35660513	     87.78393704
